<mxfile host="app.diagrams.net" modified="2023-12-12T18:40:16.106Z" agent="Mozilla/5.0 (Macintosh; Intel Mac OS X 10.15; rv:120.0) Gecko/20100101 Firefox/120.0" version="22.1.8" etag="QvnBFjcfvLjVE_66cZFl" type="google">
  <diagram name="Page-1" id="6n9EuoifBjr5N40Brasp">
    <mxGraphModel>
      <root>
        <mxCell id="0" />
        <mxCell id="1" parent="0" />
      </root>
    </mxGraphModel>
  </diagram>
</mxfile>
